<svg width="32" height="32" viewBox="0 0 32 32" fill="none" xmlns="http://www.w3.org/2000/svg">
<g clip-path="url(#clip0)">
<path d="M31.4503 16.0412C31.4182 16.1007 31.3793 16.1713 31.3336 16.2522C31.1748 16.5337 30.9347 16.9386 30.6127 17.4259C29.9681 18.4012 28.9985 19.7015 27.7002 21.0006C25.1017 23.6005 21.2178 26.1667 16 26.1667C10.2104 26.1667 6.33063 23.5815 3.88728 20.9903C2.66312 19.6921 1.80079 18.3928 1.2451 17.4189C0.967495 16.9323 0.767135 16.5283 0.636971 16.2478C0.597283 16.1623 0.564142 16.0884 0.537347 16.0271C0.572974 15.9629 0.6174 15.8843 0.670604 15.7926C0.83482 15.5096 1.08243 15.1026 1.41279 14.613C2.07407 13.6329 3.0638 12.3264 4.37609 11.0212C7.00404 8.40745 10.8886 5.83334 16 5.83334C21.1953 5.83334 25.079 8.41847 27.6837 11.0398C28.9848 12.3493 29.9585 13.6601 30.6065 14.6434C30.9302 15.1346 31.1719 15.5428 31.3318 15.8267C31.3782 15.909 31.4177 15.9809 31.4503 16.0412ZM8.85733 16C8.85733 20.0195 11.8726 23.1667 16.024 23.1667C20.1754 23.1667 23.1907 20.0195 23.1907 16C23.1907 11.9791 20.1753 8.83334 16.024 8.83334C11.8727 8.83334 8.85733 11.9791 8.85733 16ZM12.524 16C12.524 14.1288 14.0943 12.5035 16.0249 12.5C17.9525 12.4965 19.524 14.1259 19.524 16C19.524 17.8696 17.9528 19.5 16.024 19.5C14.0951 19.5 12.524 17.8708 12.524 16Z" fill="#56CCF2" stroke="#7C7777"/>
</g>
<defs>
<clipPath id="clip0">
<rect width="32" height="32" fill="white"/>
</clipPath>
</defs>
</svg>
