<svg width="24" height="24" viewBox="0 0 24 24" fill="none" xmlns="http://www.w3.org/2000/svg">
<path d="M23.21 11.29L12.71 0.789999C12.5226 0.603748 12.2692 0.499207 12.005 0.499207C11.7408 0.499207 11.4874 0.603748 11.3 0.789999L0.789999 11.29C0.603748 11.4774 0.499207 11.7308 0.499207 11.995C0.499207 12.2592 0.603748 12.5126 0.789999 12.7L11.29 23.2C11.4774 23.3863 11.7308 23.4908 11.995 23.4908C12.2592 23.4908 12.5126 23.3863 12.7 23.2L23.2 12.7C23.3863 12.5126 23.4908 12.2592 23.4908 11.995C23.4908 11.7308 23.3863 11.4774 23.2 11.29H23.21Z" fill="#FEE2AC" stroke="#7C7777" stroke-linecap="round" stroke-linejoin="round"/>
<path d="M8.59998 3.59998L10.94 5.93998" stroke="#7C7777" stroke-linecap="round" stroke-linejoin="round"/>
<path d="M12 8.5V15.5" stroke="#7C7777" stroke-linecap="round" stroke-linejoin="round"/>
<path d="M12 8.5C12.8284 8.5 13.5 7.82843 13.5 7C13.5 6.17157 12.8284 5.5 12 5.5C11.1716 5.5 10.5 6.17157 10.5 7C10.5 7.82843 11.1716 8.5 12 8.5Z" fill="#FEE2AC" stroke="#7C7777" stroke-linecap="round" stroke-linejoin="round"/>
<path d="M17 13.5C17.8284 13.5 18.5 12.8284 18.5 12C18.5 11.1716 17.8284 10.5 17 10.5C16.1716 10.5 15.5 11.1716 15.5 12C15.5 12.8284 16.1716 13.5 17 13.5Z" fill="#FEE2AC" stroke="#7C7777" stroke-linecap="round" stroke-linejoin="round"/>
<path d="M12 18.5C12.8284 18.5 13.5 17.8284 13.5 17C13.5 16.1716 12.8284 15.5 12 15.5C11.1716 15.5 10.5 16.1716 10.5 17C10.5 17.8284 11.1716 18.5 12 18.5Z" fill="#FEE2AC" stroke="#7C7777" stroke-linecap="round" stroke-linejoin="round"/>
<path d="M13.05 8.07001L15.93 10.95" stroke="#7C7777" stroke-linecap="round" stroke-linejoin="round"/>
</svg>
