<svg width="24" height="24" viewBox="0 0 24 24" fill="none" xmlns="http://www.w3.org/2000/svg">
<path d="M18.8572 13.2143H18.3572V13.7143C18.3572 15.1765 18.0709 16.3819 17.5242 17.3529L17.3385 17.6826L17.6055 17.9509L20.3912 20.75L20.392 20.7508C20.4714 20.8302 20.5001 20.9053 20.5001 21C20.5001 21.0946 20.4714 21.1697 20.392 21.2491L20.3919 21.249L20.3826 21.2588C20.3196 21.3252 20.2516 21.3571 20.1429 21.3571C20.0342 21.3571 19.9662 21.3253 19.9032 21.2588L19.8981 21.2534L19.8929 21.2482L17.2411 18.6098L16.8876 18.258L16.5349 18.6107C16.5098 18.6358 16.4596 18.6804 16.3752 18.7479C16.3098 18.8003 16.1446 18.9137 15.8553 19.099C15.5856 19.2718 15.3126 19.425 15.0364 19.559L15.2545 20.0089L15.0364 19.559C14.7791 19.6837 14.4454 19.8033 14.0281 19.914C13.8019 19.974 13.5784 20.0166 13.3572 20.0423V8.5714V8.0714H12.8572H11.1429H10.6429V8.5714V20.0445C10.3994 20.0182 10.156 19.9726 9.91267 19.9076C9.48956 19.7945 9.13862 19.6597 8.85396 19.5076C8.53956 19.3397 8.25859 19.1734 8.01014 19.0092C7.75438 18.8401 7.58742 18.7131 7.49264 18.6252C7.49245 18.625 7.49226 18.6248 7.49206 18.6246L7.29211 18.438L6.91658 18.0875L6.57634 18.4724L4.13249 21.2367C4.04644 21.3248 3.96271 21.3571 3.8572 21.3571C3.76943 21.3571 3.69362 21.3326 3.61485 21.2698C3.54613 21.2008 3.51196 21.1247 3.50595 21.0186C3.49982 20.9102 3.52687 20.8299 3.59226 20.7515L6.29322 17.7163L6.52009 17.4613L6.36533 17.1572C5.89105 16.225 5.64291 15.0834 5.64291 13.7143V13.2143H5.14291H2.14291C2.04825 13.2143 1.97317 13.1856 1.89378 13.1062C1.8144 13.0269 1.78577 12.9518 1.78577 12.8571C1.78577 12.7625 1.8144 12.6874 1.89378 12.608C1.97317 12.5286 2.04825 12.5 2.14291 12.5H5.14291H5.64291V12V8.06247V7.85537L5.49646 7.70892L3.1795 5.39196C3.10012 5.31257 3.07148 5.23749 3.07148 5.14283C3.07148 5.04817 3.10012 4.97309 3.1795 4.8937C3.25888 4.81432 3.33397 4.78569 3.42862 4.78569C3.52328 4.78569 3.59837 4.81432 3.67775 4.8937L5.99471 7.21067L6.14116 7.35712H6.34827H17.6518H17.8589L18.0054 7.21067L20.3224 4.8937C20.4017 4.81432 20.4768 4.78569 20.5715 4.78569C20.6661 4.78569 20.7412 4.81432 20.8206 4.89371C20.9 4.97309 20.9286 5.04817 20.9286 5.14283C20.9286 5.23749 20.9 5.31257 20.8206 5.39196L18.5036 7.70892L18.3572 7.85537V8.06247V12V12.5H18.8572H21.8572C21.9519 12.5 22.0269 12.5286 22.1063 12.608C22.1857 12.6874 22.2143 12.7625 22.2143 12.8571C22.2143 12.9518 22.1857 13.0269 22.1063 13.1062C22.0269 13.1856 21.9519 13.2143 21.8572 13.2143H18.8572ZM8.24318 4.64283C8.34265 3.80432 8.69972 3.08331 9.32012 2.4629C10.0606 1.72246 10.9443 1.35712 12.0001 1.35712C13.0558 1.35712 13.9395 1.72246 14.68 2.4629C15.3004 3.08331 15.6575 3.80432 15.7569 4.64283H8.24318Z" fill="#FF6969" stroke="#7C7777"/>
</svg>
