<svg width="24" height="24" viewBox="0 0 24 24" fill="none" xmlns="http://www.w3.org/2000/svg">
<path d="M11.5901 16.2877L11.5754 16.2692L11.559 16.2523L5.5741 10.0679C5.47588 9.94246 5.48456 9.8277 5.54267 9.72936C5.61112 9.61352 5.76834 9.5 5.9997 9.5H9.9997H10.5214L10.4993 8.97874L9.9997 9L10.4992 8.97872L10.4992 8.97859L10.4992 8.97801L10.4991 8.97558L10.4987 8.9657L10.4971 8.92643L10.4911 8.77448C10.4861 8.64227 10.4791 8.45059 10.4713 8.2133C10.4557 7.73862 10.4371 7.08195 10.4246 6.35395C10.3996 4.8909 10.4003 3.1654 10.4977 2.04436C10.58 1.14394 11.2133 0.5 11.9997 0.5C12.7858 0.5 13.419 1.14352 13.5016 2.04349C13.5991 3.21583 13.5998 4.94221 13.5748 6.39138C13.5623 7.11306 13.5437 7.76029 13.5281 8.22709C13.5203 8.46044 13.5133 8.64857 13.5083 8.77821L13.5023 8.92712L13.5007 8.96554L13.5003 8.9752L13.5002 8.97757L13.5002 8.97814L13.5002 8.97826L13.9997 9L13.5002 8.97828L13.4775 9.5H13.9997H17.9997C18.2328 9.5 18.394 9.61567 18.4621 9.72568C18.4953 9.77937 18.5015 9.82224 18.4995 9.84841C18.498 9.86931 18.4902 9.90235 18.4461 9.94645L18.446 9.94634L18.4376 9.95517L12.4376 16.2552L12.4228 16.2708L12.4093 16.2877C12.2094 16.5374 11.79 16.5374 11.5901 16.2877Z" fill="#AEED85" stroke="#7C7777"/>
<path d="M5 19.4999H19C19.8239 19.4999 20.5 20.1761 20.5 20.9999C20.5 21.1863 20.4401 21.3028 20.3714 21.3714C20.3028 21.44 20.1864 21.4999 20 21.4999H4C3.81362 21.4999 3.69716 21.44 3.62855 21.3714C3.55994 21.3028 3.5 21.1863 3.5 20.9999C3.5 20.1761 4.17614 19.4999 5 19.4999Z" fill="#AEED85" stroke="#7C7777"/>
</svg>
