<svg width="32" height="32" viewBox="0 0 32 32" fill="none" xmlns="http://www.w3.org/2000/svg">
<path d="M30.4149 10.7213L30.4359 10.8053L30.484 10.8774C30.4938 10.892 30.5152 10.9493 30.4972 11.0394C30.4792 11.1296 30.4373 11.1742 30.4226 11.184L30.3666 11.2213L30.3225 11.2722L23.7225 18.8722L23.5475 19.0736L23.6175 19.3312L26.4175 29.6312L26.4305 29.6791L26.4528 29.7236C26.4865 29.7911 26.4919 29.8181 26.4943 29.8322C26.4987 29.8587 26.5 29.8902 26.5 30C26.5 30.2885 26.2625 30.4951 26.009 30.4999L25.9706 30.4231L25.8161 30.3491L16.2161 25.7491L16 25.6456L15.7839 25.7491L6.18393 30.3491L6.1839 30.349L6.17639 30.3528C5.98241 30.4498 5.77588 30.4163 5.57734 30.284C5.5111 30.2398 5.41861 30.0946 5.48362 29.8271L8.38162 19.4343L8.45386 19.1752L8.27751 18.9722L1.67751 11.3722L1.66598 11.3589L1.65355 11.3464C1.48397 11.1769 1.45653 11.005 1.54721 10.8236L1.57175 10.7745L1.58506 10.7213C1.5992 10.6647 1.63276 10.6169 1.69954 10.5758C1.77223 10.5311 1.87869 10.5 1.99999 10.5H11H11.3123L11.4493 10.2193L15.5482 1.8216C15.6182 1.6822 15.6905 1.60725 15.7523 1.56603C15.8113 1.52669 15.8875 1.5 16 1.5C16.1125 1.5 16.1886 1.52669 16.2476 1.56603C16.3095 1.60725 16.3817 1.6822 16.4518 1.8216C16.4521 1.82227 16.4524 1.82294 16.4528 1.82361L20.5507 10.2193L20.6877 10.5H21H30C30.1213 10.5 30.2278 10.5311 30.3004 10.5758C30.3672 10.6169 30.4008 10.6647 30.4149 10.7213Z" fill="#EFE71D" stroke="#7C7777"/>
</svg>
